<?xml version="1.0" encoding="UTF-8" ?>
<!DOCTYPE svg PUBLIC "-//W3C//DTD SVG 1.1//EN" "http://www.w3.org/Graphics/SVG/1.1/DTD/svg11.dtd">
<svg width="144pt" height="144pt" viewBox="0 0 144 144" version="1.1" xmlns="http://www.w3.org/2000/svg">
<g id="#25a9dfff">
<path fill="#25a9df" opacity="1.00" d=" M 43.64 15.78 C 61.76 6.31 84.56 6.77 102.38 16.75 C 119.73 26.12 132.13 44.06 134.68 63.62 C 134.73 64.56 134.85 66.45 134.90 67.40 C 132.88 59.93 131.06 52.32 127.62 45.34 C 117.36 24.41 94.36 10.26 70.99 11.09 C 50.99 11.01 31.61 22.00 20.45 38.44 C 9.98 54.13 6.83 74.53 12.69 92.52 L 13.02 93.99 C 9.08 84.38 8.55 73.83 9.38 63.59 C 12.11 43.34 25.23 24.74 43.64 15.78 Z" />
<path fill="#25a9df" opacity="1.00" d=" M 92.20 47.00 C 101.46 46.54 110.75 46.67 120.01 46.91 C 120.20 62.00 120.22 77.09 120.00 92.18 C 110.76 92.46 101.48 92.63 92.24 92.09 C 92.06 77.06 92.16 62.03 92.20 47.00 M 95.84 51.83 C 95.68 55.93 95.67 60.03 95.83 64.13 C 102.46 64.23 109.11 64.36 115.74 64.03 C 115.77 60.00 115.77 55.97 115.74 51.94 C 109.11 51.56 102.47 51.72 95.84 51.83 M 96.05 69.34 C 95.96 70.84 95.88 72.34 95.80 73.85 C 97.42 73.82 99.06 73.78 100.69 73.73 C 100.66 72.29 100.64 70.85 100.62 69.41 C 99.09 69.38 97.57 69.36 96.05 69.34 M 102.64 69.58 C 102.53 70.95 102.42 72.33 102.31 73.70 C 104.47 73.74 106.62 73.78 108.78 73.81 C 108.75 72.31 108.72 70.82 108.69 69.32 C 106.67 69.41 104.65 69.49 102.64 69.58 M 110.26 73.65 C 112.10 73.72 113.94 73.77 115.78 73.82 C 115.75 72.29 115.72 70.77 115.68 69.25 C 112.38 68.79 109.72 69.92 110.26 73.65 M 95.68 75.76 C 95.81 77.39 95.94 79.02 96.08 80.65 C 97.59 80.63 99.10 80.61 100.61 80.59 C 100.65 79.08 100.68 77.56 100.71 76.05 C 99.04 75.94 97.36 75.85 95.68 75.76 M 102.60 75.78 C 101.21 80.43 104.97 81.23 108.68 80.66 C 108.73 79.09 108.77 77.52 108.80 75.95 C 106.73 75.89 104.66 75.83 102.60 75.78 M 110.68 75.78 C 110.81 77.40 110.94 79.02 111.08 80.64 C 112.61 80.63 114.14 80.62 115.68 80.61 C 115.73 79.06 115.76 77.52 115.80 75.98 C 114.09 75.90 112.39 75.84 110.68 75.78 M 95.40 83.12 C 95.40 83.81 95.39 85.18 95.39 85.86 C 97.08 86.08 98.76 86.29 100.45 86.52 C 100.45 85.51 100.45 83.49 100.45 82.48 C 98.77 82.70 97.08 82.90 95.40 83.12 M 102.71 82.68 C 102.71 83.59 102.71 85.40 102.71 86.31 C 104.66 86.34 106.60 86.35 108.55 86.36 C 108.54 85.43 108.54 83.57 108.54 82.64 C 106.59 82.64 104.65 82.65 102.71 82.68 M 110.79 82.60 C 110.79 83.55 110.80 85.44 110.80 86.38 C 112.48 86.29 114.16 86.23 115.84 86.19 C 115.84 85.34 115.84 83.65 115.84 82.81 C 114.16 82.76 112.47 82.70 110.79 82.60 Z" />
</g>
<g id="#0f74b9ff">
<path fill="#0f74b9" opacity="1.00" d=" M 20.45 38.44 C 31.61 22.00 50.99 11.01 70.99 11.09 C 94.36 10.26 117.36 24.41 127.62 45.34 C 131.06 52.32 132.88 59.93 134.90 67.40 C 135.28 74.63 135.00 82.02 132.82 88.98 C 130.03 90.94 128.35 93.93 126.90 96.94 C 121.33 107.76 112.91 116.94 102.82 123.71 C 84.31 134.82 59.68 134.66 41.13 123.70 C 32.56 119.27 26.85 111.32 21.18 103.82 C 18.34 100.05 17.01 94.99 12.69 92.52 C 6.83 74.53 9.98 54.13 20.45 38.44 M 38.45 40.81 C 26.61 43.92 17.36 55.59 18.18 68.00 C 17.51 82.55 30.69 95.44 45.02 95.59 C 57.86 96.24 71.06 86.67 72.98 73.69 C 65.77 72.19 58.49 70.95 51.36 69.09 C 57.77 64.41 65.10 61.21 71.87 57.11 C 66.92 44.35 51.58 36.68 38.45 40.81 M 92.20 47.00 C 92.16 62.03 92.06 77.06 92.24 92.09 C 101.48 92.63 110.76 92.46 120.00 92.18 C 120.22 77.09 120.20 62.00 120.01 46.91 C 110.75 46.67 101.46 46.54 92.20 47.00 M 74.04 59.00 C 78.46 58.21 82.78 56.96 87.05 55.56 C 86.13 53.04 84.75 50.75 83.04 48.70 C 79.72 51.84 76.87 55.43 74.04 59.00 M 76.03 67.49 C 80.42 68.72 84.82 69.96 89.37 70.44 C 89.39 67.90 89.33 65.36 89.18 62.83 C 84.61 63.81 80.24 65.49 76.03 67.49 M 74.86 76.02 C 78.06 79.15 81.53 82.00 85.12 84.69 C 86.65 82.60 87.80 80.26 88.65 77.81 C 84.18 76.45 79.50 76.12 74.86 76.02 Z" />
</g>
<g id="#f59221ff">
<path fill="#f59221" opacity="1.00" d=" M 38.45 40.81 C 51.58 36.68 66.92 44.35 71.87 57.11 C 65.10 61.21 57.77 64.41 51.36 69.09 C 58.49 70.95 65.77 72.19 72.98 73.69 C 71.06 86.67 57.86 96.24 45.02 95.59 C 30.69 95.44 17.51 82.55 18.18 68.00 C 17.36 55.59 26.61 43.92 38.45 40.81 Z" />
</g>
<g id="#00abebff">
<path fill="#00abeb" opacity="1.00" d=" M 74.04 59.00 C 76.87 55.43 79.72 51.84 83.04 48.70 C 84.75 50.75 86.13 53.04 87.05 55.56 C 82.78 56.96 78.46 58.21 74.04 59.00 Z" />
<path fill="#00abeb" opacity="1.00" d=" M 76.03 67.49 C 80.24 65.49 84.61 63.81 89.18 62.83 C 89.33 65.36 89.39 67.90 89.37 70.44 C 84.82 69.96 80.42 68.72 76.03 67.49 Z" />
<path fill="#00abeb" opacity="1.00" d=" M 74.86 76.02 C 79.50 76.12 84.18 76.45 88.65 77.81 C 87.80 80.26 86.65 82.60 85.12 84.69 C 81.53 82.00 78.06 79.15 74.86 76.02 Z" />
</g>
<g id="#d0d1d3ff">
<path fill="#d0d1d3" opacity="1.00" d=" M 95.84 51.83 C 102.47 51.72 109.11 51.56 115.74 51.94 C 115.77 55.97 115.77 60.00 115.74 64.03 C 109.11 64.36 102.46 64.23 95.83 64.13 C 95.67 60.03 95.68 55.93 95.84 51.83 Z" />
</g>
<g id="#00000022">
<path fill="#000000" opacity="0.13" d=" M 8.33 84.82 C 7.58 77.81 5.89 70.15 9.38 63.59 C 8.55 73.83 9.08 84.38 13.02 93.99 C 17.35 106.64 26.42 117.42 37.49 124.76 C 58.87 139.20 89.24 138.38 109.66 122.55 C 120.84 114.35 129.15 102.35 132.82 88.98 C 135.00 82.02 135.28 74.63 134.90 67.40 C 134.85 66.45 134.73 64.56 134.68 63.62 C 138.40 70.41 136.49 78.37 135.56 85.62 C 131.29 112.48 107.93 134.72 81.00 138.09 C 47.74 143.70 12.85 118.35 8.33 84.82 Z" />
</g>
<g id="#2f308fff">
<path fill="#2f308f" opacity="1.00" d=" M 96.05 69.34 C 97.57 69.36 99.09 69.38 100.62 69.41 C 100.64 70.85 100.66 72.29 100.69 73.73 C 99.06 73.78 97.42 73.82 95.80 73.85 C 95.88 72.34 95.96 70.84 96.05 69.34 Z" />
<path fill="#2f308f" opacity="1.00" d=" M 102.64 69.58 C 104.65 69.49 106.67 69.41 108.69 69.32 C 108.72 70.82 108.75 72.31 108.78 73.81 C 106.62 73.78 104.47 73.74 102.31 73.70 C 102.42 72.33 102.53 70.95 102.64 69.58 Z" />
<path fill="#2f308f" opacity="1.00" d=" M 110.26 73.65 C 109.72 69.92 112.38 68.79 115.68 69.25 C 115.72 70.77 115.75 72.29 115.78 73.82 C 113.94 73.77 112.10 73.72 110.26 73.65 Z" />
<path fill="#2f308f" opacity="1.00" d=" M 95.68 75.76 C 97.36 75.85 99.04 75.94 100.71 76.05 C 100.68 77.56 100.65 79.08 100.61 80.59 C 99.10 80.61 97.59 80.63 96.08 80.65 C 95.94 79.02 95.81 77.39 95.68 75.76 Z" />
<path fill="#2f308f" opacity="1.00" d=" M 102.60 75.78 C 104.66 75.83 106.73 75.89 108.80 75.95 C 108.77 77.52 108.73 79.09 108.68 80.66 C 104.97 81.23 101.21 80.43 102.60 75.78 Z" />
<path fill="#2f308f" opacity="1.00" d=" M 110.68 75.78 C 112.39 75.84 114.09 75.90 115.80 75.98 C 115.76 77.52 115.73 79.06 115.68 80.61 C 114.14 80.62 112.61 80.63 111.08 80.64 C 110.94 79.02 110.81 77.40 110.68 75.78 Z" />
<path fill="#2f308f" opacity="1.00" d=" M 95.40 83.12 C 97.08 82.90 98.77 82.70 100.45 82.48 C 100.45 83.49 100.45 85.51 100.45 86.52 C 98.76 86.29 97.08 86.08 95.39 85.86 C 95.39 85.18 95.40 83.81 95.40 83.12 Z" />
<path fill="#2f308f" opacity="1.00" d=" M 102.71 82.68 C 104.65 82.65 106.59 82.64 108.54 82.64 C 108.54 83.57 108.54 85.43 108.55 86.36 C 106.60 86.35 104.66 86.34 102.71 86.31 C 102.71 85.40 102.71 83.59 102.71 82.68 Z" />
<path fill="#2f308f" opacity="1.00" d=" M 110.79 82.60 C 112.47 82.70 114.16 82.76 115.84 82.81 C 115.84 83.65 115.84 85.34 115.84 86.19 C 114.16 86.23 112.48 86.29 110.80 86.38 C 110.80 85.44 110.79 83.55 110.79 82.60 Z" />
</g>
<g id="#08689dfe">
<path fill="#08689d" opacity="1.00" d=" M 126.90 96.94 C 128.35 93.93 130.03 90.94 132.82 88.98 C 129.15 102.35 120.84 114.35 109.66 122.55 C 107.38 122.93 105.08 123.22 102.82 123.71 C 112.91 116.94 121.33 107.76 126.90 96.94 Z" />
</g>
<g id="#086a9ffe">
<path fill="#086a9f" opacity="1.00" d=" M 12.69 92.52 C 17.01 94.99 18.34 100.05 21.18 103.82 C 26.85 111.32 32.56 119.27 41.13 123.70 C 40.22 123.97 38.40 124.50 37.49 124.76 C 26.42 117.42 17.35 106.64 13.02 93.99 L 12.69 92.52 Z" />
</g>
<g id="#065780fe">
<path fill="#065780" opacity="1.00" d=" M 102.82 123.71 C 105.08 123.22 107.38 122.93 109.66 122.55 C 89.24 138.38 58.87 139.20 37.49 124.76 C 38.40 124.50 40.22 123.97 41.13 123.70 C 59.68 134.66 84.31 134.82 102.82 123.71 Z" />
</g>
</svg>
