<?xml version="1.0" encoding="UTF-8" ?>
<!DOCTYPE svg PUBLIC "-//W3C//DTD SVG 1.1//EN" "http://www.w3.org/Graphics/SVG/1.1/DTD/svg11.dtd">
<svg width="1024pt" height="544pt" viewBox="0 0 1024 544" version="1.1" xmlns="http://www.w3.org/2000/svg">
<path fill="#ffffff" d=" M 0.00 0.00 L 1024.00 0.00 L 1024.00 544.00 L 0.00 544.00 L 0.00 0.00 Z" />
<path fill="#040404" d=" M 78.13 16.34 C 89.72 11.45 102.71 10.01 115.10 12.20 C 129.80 14.88 144.49 17.61 159.18 20.30 C 179.87 22.89 198.97 35.53 209.04 53.84 C 216.58 67.13 219.23 83.08 216.46 98.10 C 207.68 145.76 198.92 193.43 190.12 241.09 C 186.52 259.93 174.10 276.81 157.27 285.98 C 157.76 272.48 152.33 258.87 142.63 249.46 C 131.96 238.54 115.98 233.14 100.87 235.27 C 87.37 237.05 74.70 244.64 66.90 255.84 C 61.28 263.59 58.15 273.02 57.64 282.56 C 34.63 275.46 16.48 254.95 12.35 231.20 C 10.39 221.50 11.27 211.52 13.35 201.92 C 16.52 184.82 19.62 167.71 22.81 150.62 C 61.05 157.55 99.25 164.69 137.48 171.68 C 138.26 166.97 139.15 162.29 140.02 157.60 C 101.79 150.66 63.59 143.57 25.38 136.53 C 26.21 132.06 27.04 127.59 27.86 123.13 C 66.08 130.07 104.28 137.16 142.48 144.20 C 143.37 139.51 144.20 134.81 145.07 130.12 C 106.85 123.18 68.66 116.04 30.44 109.08 C 31.27 104.60 32.09 100.11 32.93 95.63 C 71.15 102.58 109.35 109.69 147.56 116.70 C 148.38 112.00 149.36 107.33 150.06 102.60 C 111.86 95.72 73.72 88.51 35.52 81.60 C 36.36 77.11 37.11 72.61 38.01 68.13 C 76.24 75.08 114.42 82.26 152.66 89.16 C 153.42 84.48 154.39 79.83 155.16 75.15 C 117.30 68.22 79.44 61.23 41.59 54.25 C 47.90 37.30 61.43 23.28 78.13 16.34 Z" />
<path fill="#040404" d=" M 230.96 223.91 C 246.21 209.29 272.16 207.51 289.23 219.95 C 298.33 226.63 302.86 237.94 303.10 249.00 C 294.71 248.93 286.32 249.13 277.94 248.92 C 276.48 246.28 276.52 242.72 274.64 240.11 C 269.35 230.75 253.93 231.51 248.51 240.38 C 246.42 243.45 246.10 247.39 246.73 250.97 C 247.59 255.23 251.47 257.83 255.04 259.76 C 267.61 266.34 281.94 269.79 293.07 278.95 C 299.24 283.82 303.56 291.09 304.44 298.96 C 305.91 311.20 302.46 324.62 293.22 333.19 C 285.19 340.80 273.84 343.70 263.03 343.78 C 251.13 343.98 238.45 340.94 229.74 332.36 C 221.61 324.47 218.40 312.82 218.44 301.75 C 226.99 301.74 235.55 301.75 244.10 301.75 C 244.54 308.55 246.94 316.02 253.21 319.58 C 260.52 324.26 271.08 321.95 275.94 314.82 C 280.02 309.40 280.50 300.60 275.06 295.90 C 269.08 290.76 261.25 288.69 254.13 285.62 C 244.15 282.07 233.75 277.73 227.04 269.14 C 216.75 255.94 219.05 235.36 230.96 223.91 Z" />
<path fill="#040404" d=" M 320.75 214.00 C 335.83 214.11 350.92 213.75 365.99 214.24 C 377.49 214.55 390.06 216.20 398.78 224.47 C 414.38 239.46 415.23 266.10 402.37 283.07 C 396.59 290.25 387.98 294.94 378.95 296.51 C 368.25 298.47 357.32 297.55 346.51 297.77 C 346.49 312.26 346.54 326.76 346.48 341.26 C 337.91 341.24 329.33 341.26 320.75 341.25 C 320.75 298.83 320.75 256.42 320.75 214.00 Z" />
<path fill="#040404" d=" M 425.23 214.00 C 448.99 214.00 472.75 214.00 496.50 214.00 C 496.49 221.59 496.53 229.18 496.48 236.78 C 481.32 236.74 466.16 236.77 451.00 236.76 C 451.02 246.35 450.96 255.93 451.04 265.52 C 465.95 265.47 480.85 265.50 495.76 265.50 C 495.76 273.08 495.76 280.66 495.77 288.24 C 480.85 288.25 465.93 288.25 451.01 288.24 C 451.01 298.34 450.95 308.43 451.04 318.52 C 466.19 318.45 481.35 318.51 496.50 318.49 C 496.50 326.08 496.52 333.67 496.49 341.26 C 472.74 341.24 448.99 341.26 425.24 341.24 C 425.24 298.83 425.25 256.42 425.23 214.00 Z" />
<path fill="#040404" d=" M 557.40 214.08 C 564.98 213.90 572.58 214.05 580.17 214.00 C 596.95 256.42 613.75 298.83 630.55 341.24 C 621.10 341.25 611.65 341.27 602.20 341.23 C 599.06 332.98 596.16 324.65 592.89 316.46 C 576.31 316.55 559.74 316.52 543.16 316.47 C 540.08 324.71 537.13 332.99 534.08 341.25 C 524.70 341.25 515.32 341.26 505.94 341.24 C 523.04 298.83 540.39 256.52 557.40 214.08 Z" />
<path fill="#040404" d=" M 646.75 214.00 C 655.33 214.00 663.92 214.00 672.50 214.00 C 672.51 233.51 672.49 253.02 672.52 272.53 C 686.56 253.09 700.44 233.54 714.36 214.01 C 723.48 213.99 732.61 214.00 741.74 214.01 C 726.48 235.28 710.89 256.32 695.69 277.64 C 712.58 298.82 729.41 320.06 746.29 341.25 C 735.75 341.27 725.21 341.22 714.67 341.27 C 700.52 322.55 686.73 303.55 672.53 284.87 C 672.47 303.66 672.53 322.45 672.50 341.25 C 663.92 341.25 655.33 341.25 646.75 341.25 C 646.75 298.83 646.75 256.42 646.75 214.00 Z" />
<path fill="#040404" d=" M 757.23 214.00 C 765.82 213.99 774.41 214.00 783.00 214.00 C 783.01 240.68 782.98 267.36 783.01 294.05 C 783.11 301.13 784.08 308.76 788.74 314.43 C 795.14 322.12 807.53 323.07 815.60 317.54 C 822.64 312.44 824.23 303.15 824.22 295.01 C 824.27 268.01 824.23 241.00 824.24 214.00 C 832.82 214.00 841.41 214.00 850.00 214.00 C 849.99 241.34 850.02 268.69 849.98 296.03 C 849.71 308.17 847.32 321.43 838.07 330.11 C 829.41 339.46 816.50 343.91 803.93 343.79 C 791.19 343.72 777.67 339.80 769.04 329.94 C 760.40 321.76 757.37 309.58 757.29 298.04 C 757.16 270.03 757.29 242.02 757.23 214.00 Z" />
<path fill="#040404" d=" M 873.00 214.00 C 888.68 214.10 904.37 213.74 920.04 214.30 C 931.12 214.74 943.14 216.76 951.33 224.91 C 966.81 240.22 967.25 267.14 953.86 283.90 C 948.22 290.37 940.30 294.73 931.91 296.37 C 920.98 298.48 909.81 297.56 898.76 297.76 C 898.76 312.26 898.76 326.75 898.76 341.24 C 890.17 341.26 881.59 341.25 873.00 341.25 C 873.00 298.83 873.00 256.42 873.00 214.00 Z" />
<path fill="#040404" d=" M 980.75 214.00 C 988.50 214.00 996.25 214.00 1004.00 214.00 C 1004.00 243.67 1004.00 273.33 1004.00 303.00 C 996.25 303.00 988.50 303.00 980.75 303.00 C 980.75 273.33 980.75 243.67 980.75 214.00 Z" />
<path fill="#ffffff" d=" M 346.46 274.93 C 346.58 262.21 346.45 249.48 346.53 236.75 C 357.18 237.20 368.74 235.20 378.52 240.51 C 387.25 245.38 388.53 257.86 383.96 266.03 C 380.49 272.37 372.81 274.46 366.09 274.89 C 359.55 275.10 353.00 275.00 346.46 274.93 Z" />
<path fill="#ffffff" d=" M 898.76 236.76 C 906.55 236.87 914.39 236.36 922.12 237.52 C 927.77 238.48 933.67 241.14 936.46 246.43 C 940.11 253.72 939.31 263.54 933.44 269.45 C 929.05 273.47 922.85 274.67 917.09 274.96 C 910.98 275.05 904.87 274.98 898.76 275.00 C 898.76 262.25 898.75 249.51 898.76 236.76 Z" />
<path fill="#ffffff" d=" M 567.72 244.98 C 573.85 261.90 579.90 278.85 586.02 295.77 C 574.00 295.72 561.97 295.76 549.95 295.75 C 555.87 278.82 561.79 261.90 567.72 244.98 Z" />
<path fill="#040404" d=" M 85.85 258.79 C 97.18 247.70 117.01 247.42 128.52 258.37 C 138.75 267.18 141.71 282.91 135.98 295.01 C 131.54 304.84 121.72 311.77 111.04 313.02 C 109.87 329.45 113.00 347.75 125.58 359.44 C 139.87 372.62 160.30 375.39 178.98 375.75 C 453.98 375.74 728.99 375.76 1003.99 375.74 C 1008.45 375.41 1012.88 378.56 1013.87 382.95 C 1015.68 388.60 1011.05 395.40 1005.01 395.25 C 728.00 395.26 451.00 395.25 174.00 395.25 C 154.68 394.65 134.59 390.77 118.61 379.29 C 106.13 370.52 97.42 356.92 93.84 342.16 C 91.04 331.36 90.77 320.08 91.63 309.01 C 85.04 304.90 79.66 298.62 77.43 291.11 C 73.81 279.88 77.20 266.82 85.85 258.79 Z" />
<path fill="#040404" d=" M 980.75 315.75 C 988.50 315.75 996.25 315.75 1004.00 315.75 C 1004.00 324.25 1004.00 332.75 1004.00 341.25 C 996.25 341.25 988.50 341.25 980.75 341.25 C 980.75 332.75 980.74 324.25 980.75 315.75 Z" />
<path fill="#a9a9a9" d=" M 757.91 410.81 C 764.84 410.99 771.89 410.27 778.74 411.14 C 793.49 448.32 807.61 485.78 822.02 523.11 C 815.99 523.33 809.96 523.18 803.94 523.25 C 802.59 523.14 800.66 523.50 800.38 521.72 C 796.94 512.30 793.75 502.80 790.28 493.39 C 775.44 493.46 760.60 493.42 745.77 493.42 C 742.33 503.25 738.66 513.01 735.43 522.91 C 728.60 523.55 721.73 523.14 714.89 523.16 C 729.06 485.65 743.59 448.27 757.91 410.81 Z" />
<path fill="#a9a9a9" d=" M 832.61 410.78 C 839.19 410.80 845.76 410.72 852.35 410.83 C 852.50 442.53 852.46 474.24 852.37 505.94 C 871.36 506.37 890.38 506.06 909.39 506.10 C 909.45 511.79 909.49 517.49 909.36 523.19 C 883.77 523.23 858.18 523.27 832.60 523.17 C 832.55 485.71 832.53 448.24 832.61 410.78 Z" />
<path fill="#a9a9a9" d=" M 922.87 410.86 C 929.38 410.69 935.88 410.80 942.39 410.79 C 942.44 442.52 942.49 474.25 942.37 505.98 C 961.38 506.33 980.40 506.07 999.42 506.11 C 999.44 511.79 999.45 517.46 999.41 523.14 C 973.88 523.26 948.36 523.32 922.84 523.11 C 922.76 485.70 922.69 448.27 922.87 410.86 Z" />
<path fill="#ffffff" d=" M 766.55 434.40 C 766.96 433.04 767.64 431.80 768.50 430.69 C 773.92 446.69 779.88 462.52 784.97 478.63 C 773.71 478.52 762.45 478.58 751.19 478.60 C 756.06 463.78 761.57 449.18 766.55 434.40 Z" />
</svg>
